<?xml version="1.0" standalone="no"?>
<!DOCTYPE svg PUBLIC "-//W3C//DTD SVG 20010904//EN"
 "http://www.w3.org/TR/2001/REC-SVG-20010904/DTD/svg10.dtd">
<svg version="1.0" xmlns="http://www.w3.org/2000/svg"
 width="400.000000pt" height="400.000000pt" viewBox="0 0 400.000000 400.000000"
 preserveAspectRatio="xMidYMid meet">
<metadata>
Created by potrace 1.14, written by Peter Selinger 2001-2017
</metadata>
<g transform="translate(0.000000,400.000000) scale(0.100000,-0.100000)"
fill="#000000" stroke="none">
<path d="M1780 3920 c0 -5 -10 -10 -23 -10 -13 0 -28 -5 -34 -11 -6 -6 -30
-12 -53 -13 -22 0 -36 -2 -31 -4 16 -5 1 -32 -18 -32 -10 0 -21 -3 -25 -7 -3
-4 -16 -7 -28 -8 -20 -2 -20 -1 -2 13 39 30 -15 3 -79 -39 -273 -184 -378
-312 -434 -528 -20 -79 -24 -123 -26 -251 -1 -85 2 -168 6 -184 l8 -30 12 24
c22 43 32 32 30 -31 -2 -81 -43 -153 -88 -154 -37 0 -58 -38 -59 -105 -1 -54
54 -259 91 -342 32 -73 84 -122 123 -116 27 4 28 2 40 -66 7 -39 16 -75 20
-81 3 -5 7 -21 8 -35 1 -13 5 -34 10 -45 5 -11 15 -38 22 -60 7 -22 20 -58 30
-80 56 -130 66 -169 57 -226 -9 -54 -10 -56 -60 -80 -60 -28 -76 -53 -26 -39
45 13 48 5 12 -33 -54 -57 -69 -108 -23 -79 26 16 30 15 30 -4 0 -11 6 -14 20
-9 22 7 22 6 24 -67 1 -27 -2 -48 -6 -48 -4 0 -8 5 -8 10 0 15 -16 12 -62 -10
-49 -23 -73 -15 -83 30 -7 31 -31 37 -29 7 1 -9 -2 -15 -6 -12 -5 3 -11 1 -15
-5 -3 -5 -14 -10 -24 -10 -11 0 -21 -9 -24 -21 -5 -19 -11 -21 -51 -17 -36 4
-49 2 -62 -13 -9 -11 -21 -19 -27 -19 -8 0 -7 6 9 46 3 6 -12 16 -33 22 -30 9
-42 9 -59 -3 -12 -7 -31 -11 -42 -8 -28 7 -62 -14 -62 -37 0 -11 -4 -20 -10
-20 -13 0 -13 26 1 52 12 21 11 21 -16 0 -19 -15 -42 -22 -74 -22 -60 0 -85
-15 -41 -24 18 -3 49 -6 70 -6 26 0 45 -8 64 -25 37 -34 29 -50 -26 -50 -31 0
-53 -6 -67 -19 -26 -23 -37 -16 -21 14 14 27 14 28 -38 36 -27 4 -42 3 -42 -4
0 -6 -15 -9 -37 -6 -51 6 -86 -13 -79 -42 7 -26 -12 -43 -25 -23 -13 21 -12
24 23 58 39 38 25 41 -23 5 -29 -22 -41 -25 -80 -20 -49 7 -79 0 -79 -16 0 -6
11 -7 25 -4 35 9 31 -1 -7 -18 -31 -14 -29 -14 43 -9 75 6 75 6 102 -26 37
-44 36 -71 -2 -71 -17 0 -33 4 -36 10 -8 13 -35 13 -35 -1 0 -6 -10 -23 -21
-37 l-22 -27 5 25 c3 14 9 32 12 41 6 13 -1 20 -29 29 -44 15 -79 49 -65 65 7
9 -4 9 -43 2 -74 -13 -88 -20 -49 -25 17 -2 32 -7 32 -13 0 -5 10 -9 23 -9 26
0 106 -64 94 -76 -4 -5 -12 -3 -16 4 -4 7 -15 10 -24 6 -13 -5 -17 0 -17 20 0
14 -4 26 -10 26 -5 0 -10 -12 -10 -27 -1 -32 -34 -78 -50 -68 -17 10 -11 44
10 62 11 10 20 21 20 25 0 5 -9 8 -20 8 -11 0 -20 4 -20 8 0 17 -59 0 -65 -18
-3 -11 -16 -20 -28 -22 -14 -2 -23 -11 -25 -27 -3 -19 0 -22 13 -17 21 8 75
-23 75 -43 0 -11 -3 -12 -11 -4 -7 7 -21 8 -45 0 l-34 -10 0 -65 c0 -48 5 -71
17 -85 17 -17 17 -20 1 -31 -12 -9 -14 -16 -7 -27 7 -9 12 -10 15 -3 15 35 34
47 83 52 49 4 53 3 48 -14 -4 -11 -9 -31 -13 -47 -8 -34 -25 -44 -92 -53 l-52
-7 0 -38 c0 -24 4 -38 11 -36 6 1 13 -8 15 -20 4 -24 -11 -32 -19 -10 -3 6 -6
-33 -6 -89 l-1 -101 29 -1 c23 0 31 5 35 23 7 26 60 55 101 55 28 0 28 -6 2
-70 -6 -14 -9 -29 -8 -34 1 -5 -5 -6 -13 -3 -18 7 -32 -9 -14 -16 22 -9 -10
-25 -38 -19 -14 2 -24 0 -24 -7 0 -7 -5 -9 -11 -6 -5 4 -21 8 -35 10 -22 2
-24 -1 -24 -36 0 -29 5 -41 21 -49 12 -7 18 -18 15 -26 -4 -10 2 -14 18 -14
13 0 26 7 30 15 7 19 36 19 36 0 0 -12 14 -15 68 -15 l69 0 -2 38 c-2 29 -7
38 -23 40 -13 2 -19 9 -16 17 5 13 43 13 83 0 19 -6 46 -45 31 -45 -5 0 -10 5
-10 11 0 5 -5 7 -11 3 -6 -3 2 -14 20 -25 17 -10 31 -23 31 -29 0 -5 12 -10
26 -10 21 0 24 4 19 20 -8 26 11 26 27 0 15 -24 27 -25 43 -4 10 15 13 15 27
0 12 -11 35 -16 81 -16 61 0 65 1 65 23 0 13 -9 29 -20 36 -18 11 -19 10 -13
-11 6 -22 6 -22 -10 -3 -8 10 -14 24 -12 30 4 12 56 14 64 2 3 -4 16 -13 30
-18 17 -6 23 -14 19 -25 -5 -12 -2 -15 10 -10 12 4 15 2 10 -9 -4 -12 6 -15
62 -15 40 0 73 5 80 12 9 9 12 9 12 0 0 -8 23 -12 74 -12 l74 0 -11 30 c-16
41 0 54 64 52 49 -1 75 -15 63 -34 -3 -4 2 -8 11 -8 9 0 14 -4 10 -9 -10 -16
27 -29 83 -29 41 0 52 3 48 14 -3 8 -1 14 4 14 6 0 10 -6 10 -14 0 -10 21 -14
90 -15 53 -1 90 2 90 8 0 5 -12 11 -27 13 -23 2 -29 9 -31 34 -3 28 0 32 27
36 17 2 34 1 38 -3 5 -4 17 -9 28 -11 12 -2 20 -11 20 -23 1 -11 6 -19 13 -18
7 2 9 -4 5 -14 -4 -11 -3 -14 6 -9 6 4 17 3 24 -2 15 -13 119 -14 112 -1 -4 5
-1 9 4 9 6 0 11 -4 11 -10 0 -16 283 -13 299 3 11 9 13 9 7 0 -5 -10 7 -13 47
-13 40 0 56 4 61 15 7 20 36 19 36 0 0 -13 25 -15 174 -14 180 0 204 6 191 42
-8 18 48 29 83 16 18 -7 21 -14 16 -34 l-6 -25 156 0 c97 0 156 4 156 10 0 6
-5 10 -11 10 -8 0 -8 5 1 15 7 8 18 15 25 15 7 0 26 7 41 15 45 23 56 19 52
-17 -2 -17 -9 -33 -16 -36 -9 -3 -11 3 -6 22 5 21 3 25 -10 20 -17 -7 -19 -14
-10 -38 5 -12 21 -16 75 -16 39 0 69 4 69 10 0 6 7 10 15 10 8 0 15 -4 15 -10
0 -6 30 -10 71 -10 47 0 68 3 64 11 -4 6 -13 8 -21 5 -8 -3 -14 1 -14 10 0 11
6 14 16 10 8 -3 12 -2 9 3 -3 5 -1 13 5 16 8 5 7 11 -1 21 -12 15 -9 17 44 28
18 4 27 13 27 26 0 26 -16 26 -23 -1 -6 -23 -27 -17 -27 7 0 8 -4 14 -10 14
-5 0 -10 -9 -10 -20 0 -11 -4 -20 -9 -20 -16 0 -22 50 -11 90 12 44 35 53 45
19 7 -21 8 -21 30 7 l22 28 13 -38 c7 -21 10 -55 6 -76 -3 -22 -2 -41 3 -44
11 -7 2 -56 -11 -56 -6 0 -7 11 -4 26 6 22 4 25 -9 20 -9 -3 -22 -6 -28 -6 -8
0 -8 -3 0 -11 7 -7 9 -25 6 -41 l-6 -28 76 2 c64 1 76 4 80 20 7 25 37 23 37
-2 0 -19 5 -21 75 -18 41 1 75 6 75 10 0 4 -4 8 -10 8 -19 0 -11 59 10 70 11
6 20 18 20 28 -1 16 -2 16 -14 0 -20 -27 -52 -22 -68 11 -12 26 -15 28 -33 15
-17 -13 -17 -14 -1 -14 26 0 14 -24 -14 -28 -16 -3 -30 4 -42 20 -15 19 -18
20 -18 6 0 -10 -7 -18 -15 -18 -9 0 -12 6 -8 18 6 16 5 16 -13 0 -19 -16 -37
-22 -61 -19 -16 1 -18 107 -3 116 6 4 9 14 8 23 -4 24 44 28 93 8 43 -17 62
-21 40 -7 -11 7 -11 12 0 32 l14 24 3 -27 c2 -14 10 -32 18 -38 8 -7 14 -24
14 -39 0 -37 19 -6 21 34 0 17 3 24 6 18 2 -7 13 -13 23 -13 23 0 41 -22 50
-63 l8 -32 1 31 c1 34 29 77 37 57 7 -16 40 -17 49 -3 15 25 35 -13 35 -66 0
-58 -13 -71 -27 -27 l-10 28 -6 -28 c-7 -25 -27 -39 -27 -17 0 6 -4 10 -9 10
-5 0 -7 -17 -4 -39 6 -45 -12 -65 -33 -36 -16 22 -30 13 -19 -12 5 -10 7 -24
6 -30 -1 -10 32 -12 139 -11 l140 2 0 169 c0 119 -3 166 -11 161 -6 -3 -9 -18
-6 -31 4 -24 -17 -95 -36 -120 -13 -17 -27 -16 -27 2 0 8 -11 25 -25 39 -25
25 -25 27 -9 51 18 28 30 32 37 13 3 -7 6 -3 6 8 1 15 10 24 27 28 20 5 25 12
21 27 -4 15 -2 19 9 15 12 -4 14 12 14 95 0 87 -2 100 -16 97 -25 -4 -29 22
-5 29 24 6 29 43 6 43 -11 0 -14 7 -9 25 8 31 -23 48 -38 21 -8 -15 -13 -13
-41 14 -18 17 -43 41 -55 53 -20 18 -21 23 -8 25 22 5 21 8 -16 42 -38 34 -53
38 -38 10 15 -27 -2 -25 -29 4 -13 13 -34 27 -47 30 -29 8 -32 26 -3 26 11 0
17 5 14 10 -3 6 -18 10 -33 10 -22 0 -27 -5 -27 -25 0 -14 4 -25 8 -25 5 0 7
-6 5 -12 -6 -17 -65 -29 -165 -35 -77 -4 -83 -6 -117 -39 -23 -22 -36 -44 -36
-61 0 -21 -4 -24 -23 -19 -16 4 -35 -5 -66 -29 -24 -19 -47 -35 -52 -35 -12 0
18 80 39 103 19 22 108 67 132 67 8 0 28 9 45 20 30 20 29 22 -27 34 -16 4
-35 20 -48 40 -12 21 -27 33 -34 30 -14 -5 -56 32 -56 48 0 14 33 9 51 -8 10
-9 31 -17 46 -18 43 -3 123 -53 123 -76 0 -21 3 -22 88 -24 49 -1 72 15 52 39
-8 10 -30 15 -64 15 -29 0 -57 5 -64 12 -16 16 -15 39 1 37 50 -6 49 14 -2 27
-40 11 -79 3 -47 -9 16 -6 23 -37 9 -37 -5 0 -21 9 -38 20 -16 11 -41 20 -55
20 -14 0 -43 9 -65 20 -47 24 -45 24 -45 6 0 -8 -10 -16 -23 -20 -23 -5 -56
-56 -37 -56 5 0 12 5 15 10 3 6 13 10 21 10 18 0 84 -51 84 -65 0 -5 -5 -3
-10 5 -7 11 -27 15 -72 15 -70 0 -83 15 -54 60 14 20 14 28 4 45 -10 16 -10
24 0 40 11 17 10 20 -7 20 -11 0 -27 3 -36 7 -14 5 -16 2 -10 -15 8 -26 0 -27
-48 -7 -42 18 -57 19 -57 5 0 -5 9 -10 19 -10 24 0 79 -54 87 -85 3 -12 4 -36
2 -51 -2 -24 -7 -29 -28 -26 -29 3 -40 13 -44 38 -2 13 -12 20 -34 22 -35 4
-43 21 -13 29 17 4 18 9 9 29 -13 28 -23 30 -36 8 -11 -20 -23 -20 -34 0 -5 9
-22 16 -38 16 -34 0 -40 -15 -9 -23 27 -7 15 -27 -15 -27 -18 0 -25 7 -29 26
-6 35 26 68 57 60 27 -7 37 0 29 20 -3 7 -21 16 -41 20 -42 8 -74 22 -84 38
-12 18 -9 26 10 26 16 1 16 1 -1 11 -25 15 -46 -4 -28 -25 19 -22 -5 -31 -34
-12 -14 9 -25 21 -25 26 0 6 -7 10 -15 10 -8 0 -15 -2 -15 -4 0 -2 25 -28 55
-58 51 -50 54 -55 47 -88 -13 -58 -41 -47 -79 30 -18 36 -32 70 -33 77 0 15
-34 26 -58 19 -23 -7 -33 1 -61 54 -45 84 -46 72 -6 -68 14 -48 15 -66 6 -71
-9 -6 -8 -15 4 -37 19 -37 19 -54 0 -54 -8 0 -19 17 -26 43 -12 45 -34 77 -55
77 -13 0 -18 11 -29 68 -6 29 -5 32 19 32 34 0 34 24 -1 57 -26 24 -26 25 -5
19 28 -9 28 4 2 62 -11 25 -29 46 -40 49 -11 3 -20 12 -20 19 0 17 5 17 31 4
20 -11 28 3 9 15 -6 4 -9 28 -6 56 3 37 13 59 39 91 87 108 158 280 183 443
17 111 17 116 1 109 -10 -3 -11 19 -5 108 5 62 12 127 17 144 4 17 7 51 5 75
-2 24 3 75 12 113 24 100 36 64 35 -102 -2 -178 -8 -229 -30 -274 -10 -21 -15
-38 -11 -38 19 0 50 53 70 120 13 41 36 118 53 169 16 52 32 125 35 162 4 66
4 69 -28 100 l-32 32 12 78 c15 97 3 144 -39 154 -28 6 -28 6 -40 131 -30 311
-127 507 -321 650 -89 66 -261 153 -315 160 -11 1 -40 8 -65 14 -25 6 -60 9
-77 5 -27 -5 -32 -3 -27 10 5 12 -2 15 -31 15 -20 0 -34 -3 -32 -7 3 -5 -13
-8 -34 -8 -21 -1 -39 3 -39 7 0 4 -4 8 -10 8 -5 0 -10 -4 -10 -10z m-23 -36
c-3 -3 -12 -4 -19 -1 -8 3 -5 6 6 6 11 1 17 -2 13 -5z m297 -20 c11 -7 17 -16
15 -19 -9 -8 -69 19 -69 31 0 14 27 8 54 -12z m-344 -4 c0 -5 -12 -10 -27 -10
-22 0 -25 2 -13 10 20 13 40 13 40 0z m189 -10 c-26 -4 -56 -13 -68 -19 -11
-7 -21 -9 -21 -7 0 14 59 35 95 34 l40 0 -46 -8z m226 0 c-3 -5 -11 -10 -16
-10 -6 0 -7 5 -4 10 3 6 11 10 16 10 6 0 7 -4 4 -10z m75 -30 c8 -5 11 -10 5
-10 -5 0 -17 5 -25 10 -8 5 -10 10 -5 10 6 0 17 -5 25 -10z m-56 -122 c4 7 12
10 17 6 5 -3 16 -1 23 5 25 21 117 5 191 -33 84 -43 91 -48 136 -106 40 -50
58 -87 87 -175 11 -33 23 -69 28 -79 5 -14 4 -17 -4 -12 -17 10 -15 -19 3 -53
8 -16 13 -41 12 -57 -1 -19 3 -29 13 -29 8 0 16 -9 18 -20 1 -11 7 -38 12 -60
5 -22 12 -61 15 -87 l6 -48 -48 6 c-26 3 -70 18 -98 31 -37 19 -68 26 -120 28
-38 1 -73 -2 -76 -7 -3 -5 -41 -13 -85 -18 -91 -11 -148 -25 -166 -43 -7 -7
-45 -23 -84 -36 -67 -23 -75 -23 -120 -10 -27 7 -51 14 -54 14 -3 1 -31 11
-63 23 -34 13 -81 22 -115 22 -31 1 -74 7 -94 14 -22 8 -77 13 -130 13 -87 0
-95 -2 -126 -29 -18 -15 -29 -28 -25 -29 4 -1 60 -1 123 -1 100 0 107 -1 55
-8 -33 -4 -69 -11 -79 -15 -14 -6 -17 -5 -12 3 9 15 -3 15 -77 -3 -72 -16
-190 -34 -196 -29 -2 2 2 37 9 76 8 40 13 76 12 81 -1 4 5 24 14 45 10 20 16
42 15 48 -1 6 9 19 22 27 29 19 43 84 26 120 -7 17 -8 35 -1 60 7 24 7 39 1
43 -6 3 -5 12 3 22 10 12 10 16 1 19 -25 9 51 164 96 197 l26 20 -19 -22 c-31
-35 -9 -39 27 -5 27 27 40 31 84 32 29 0 61 5 72 10 25 14 77 14 101 1 13 -7
21 -6 30 5 16 19 39 19 46 0 4 -8 13 -15 22 -15 12 0 10 -6 -9 -26 l-24 -27
38 7 c82 15 280 4 313 -17 7 -4 26 -2 43 4 28 10 29 12 17 32 -8 14 -10 31 -6
47 8 24 8 24 9 3 1 -16 7 -23 21 -23 17 0 19 3 12 17 -7 11 -6 25 1 41 10 21
12 22 17 6 5 -12 9 -14 14 -6z m-712 -20 c-9 -9 -15 -9 -24 0 -9 9 -7 12 12
12 19 0 21 -3 12 -12z m35 -14 c-3 -3 -12 -4 -19 -1 -8 3 -5 6 6 6 11 1 17 -2
13 -5z m782 -738 c-7 -7 -163 -45 -167 -41 -2 2 22 11 54 20 33 9 64 18 69 20
15 5 49 6 44 1z m452 -63 c5 -237 4 -259 -15 -321 -11 -35 -27 -67 -37 -73
-40 -21 -147 -49 -190 -49 -68 0 -194 35 -235 66 -62 47 -124 183 -124 270 0
86 78 136 230 147 65 5 49 -3 -33 -18 -21 -3 -35 -10 -32 -14 2 -5 -1 -14 -9
-20 -11 -9 -15 -9 -18 0 -6 17 -41 3 -74 -29 -15 -15 -24 -21 -19 -13 6 10 4
12 -4 7 -9 -6 -9 -12 3 -25 14 -16 14 -21 -4 -56 -25 -49 -25 -62 0 -75 16 -9
22 -8 26 4 5 13 14 9 48 -18 22 -18 58 -39 78 -47 20 -7 35 -16 33 -20 -9 -14
26 -18 73 -9 108 21 142 22 142 6 0 -9 7 -16 15 -16 18 0 19 -12 3 -28 -10
-10 -5 -18 5 -9 2 1 15 -6 29 -15 l27 -18 7 45 c3 25 4 51 0 60 -3 9 3 19 15
25 17 9 20 20 18 65 -1 31 3 60 10 69 10 12 9 23 -7 60 -27 59 -52 74 -158 91
l-89 15 75 -5 c86 -5 135 -19 170 -49 25 -21 25 -21 7 0 -21 25 -22 34 -2 34
9 0 18 7 21 15 11 27 14 16 15 -52z m-1338 30 c-7 -2 -19 -2 -25 0 -7 3 -2 5
12 5 14 0 19 -2 13 -5z m231 -2 c19 -7 19 -8 0 -16 -10 -5 -36 -10 -57 -11
-21 -1 -45 -5 -53 -8 -20 -8 -17 -28 4 -22 9 2 53 8 96 12 70 6 78 5 73 -9 -3
-9 0 -23 8 -31 21 -20 19 -24 -10 -18 -14 2 -25 8 -25 13 0 13 -50 11 -106 -5
-27 -7 -78 -19 -114 -26 -36 -7 -69 -17 -74 -21 -6 -5 -23 -9 -39 -9 -22 0
-28 -4 -24 -15 4 -8 2 -17 -2 -20 -16 -9 -20 -60 -8 -92 19 -55 69 -36 81 30
7 35 27 49 41 27 8 -13 25 -13 25 0 0 6 -10 14 -22 19 -22 8 -22 8 6 26 23 16
31 17 48 6 11 -7 17 -8 14 -3 -3 5 3 17 14 27 22 20 26 14 10 -16 -7 -13 -7
-19 0 -19 5 0 10 -4 10 -10 0 -5 -7 -7 -15 -4 -11 5 -13 2 -9 -10 9 -23 61
-45 119 -48 67 -5 42 -13 -90 -32 l-110 -15 114 4 c91 4 121 9 148 25 42 25
65 26 56 4 -5 -14 -2 -16 22 -10 25 6 54 31 55 46 0 5 -87 4 -165 -2 -24 -1
-45 0 -45 4 0 32 15 68 28 68 19 0 82 -39 82 -51 0 -5 7 -9 15 -9 8 0 15 7 15
15 0 9 -7 18 -15 21 -8 4 -15 10 -15 15 0 6 10 5 23 -1 22 -11 22 -11 -2 9
-13 12 -32 21 -42 21 -10 0 -19 5 -19 10 0 16 72 12 91 -6 18 -16 79 -28 79
-15 0 4 -7 16 -15 27 -20 26 -19 33 5 27 11 -3 22 -15 24 -27 14 -69 14 -119
0 -168 -9 -29 -16 -55 -16 -58 2 -10 -64 -73 -100 -96 -20 -13 -66 -30 -103
-39 -68 -15 -250 -21 -241 -7 2 4 -9 9 -27 10 -17 2 -33 5 -35 7 -9 9 -54 121
-73 182 -11 34 -24 65 -29 68 -13 8 -12 61 1 110 12 44 77 115 105 115 11 0 1
-11 -27 -28 -34 -22 -48 -39 -57 -69 -19 -63 -13 -84 8 -30 32 83 43 90 185
118 98 19 150 22 179 10z m263 -17 c-3 -3 -12 -4 -19 -1 -8 3 -5 6 6 6 11 1
17 -2 13 -5z m83 -4 c13 -9 13 -10 0 -9 -8 1 -26 5 -40 9 l-25 8 25 1 c14 0
32 -4 40 -9z m849 6 c-11 -9 -69 -14 -69 -6 0 6 17 10 37 10 20 0 34 -2 32 -4z
m-269 -32 c31 -17 47 -31 43 -40 -6 -16 13 -19 22 -4 3 6 12 10 18 9 9 0 9 -2
0 -6 -7 -2 -13 -9 -13 -15 0 -6 7 -8 15 -4 9 3 15 0 15 -10 0 -8 5 -12 10 -9
6 3 10 -4 10 -15 0 -19 -4 -21 -26 -16 -15 4 -34 15 -43 26 -9 10 -41 27 -71
37 -46 16 -70 18 -145 13 -95 -7 -118 -5 -112 14 3 7 37 11 103 10 l99 -1 -77
10 c-43 5 -78 14 -78 19 0 4 41 8 91 8 80 0 97 -3 139 -26z m95 16 c3 -6 -1
-7 -9 -4 -18 7 -21 14 -7 14 6 0 13 -4 16 -10z m-855 -10 c18 -12 2 -12 -25 0
-13 6 -15 9 -5 9 8 0 22 -4 30 -9z m-565 -26 c0 -5 -15 -10 -32 -12 -32 -3
-46 11 -20 21 18 7 52 1 52 -9z m876 -41 c-12 -20 -14 -14 -5 12 4 9 9 14 11
11 3 -2 0 -13 -6 -23z m-468 0 c-7 -2 -21 -2 -30 0 -10 3 -4 5 12 5 17 0 24
-2 18 -5z m662 -3 c3 -6 -1 -7 -10 -4 -11 4 -14 2 -9 -9 3 -10 -2 -20 -15 -27
-33 -17 -46 -1 -20 26 24 25 44 31 54 14z m113 3 c-16 -2 -40 -2 -55 0 -16 2
-3 4 27 4 30 0 43 -2 28 -4z m107 -3 c7 -12 -2 -12 -30 0 -19 8 -19 9 2 9 12
1 25 -3 28 -9z m55 -36 c0 -2 -9 0 -20 6 -11 6 -20 13 -20 16 0 2 9 0 20 -6
11 -6 20 -13 20 -16z m-1093 10 c-3 -3 -12 -4 -19 -1 -8 3 -5 6 6 6 11 1 17
-2 13 -5z m909 -31 c-10 -10 -19 5 -10 18 6 11 8 11 12 0 2 -7 1 -15 -2 -18z
m122 15 c19 -19 14 -32 -17 -51 -40 -23 -55 -22 -41 2 5 11 10 29 10 40 0 24
28 29 48 9z m-188 -12 c0 -51 103 -89 199 -73 70 12 93 -6 30 -23 -44 -12
-139 -9 -229 8 -43 8 -44 9 -20 20 l25 11 -27 0 c-38 1 -44 18 -17 47 25 27
39 31 39 10z m-770 -6 c0 -5 -4 -10 -10 -10 -5 0 -10 5 -10 10 0 6 5 10 10 10
6 0 10 -4 10 -10z m481 -10 c22 -19 23 -21 7 -30 -27 -16 -22 -30 11 -30 26 0
29 -4 35 -37 8 -51 8 -51 -5 -109 -11 -47 -11 -54 8 -77 11 -15 24 -23 28 -19
3 4 5 2 4 -3 -2 -6 1 -25 5 -42 9 -39 36 -44 58 -11 l15 22 36 -39 c54 -59 45
-103 -18 -90 -11 2 -34 4 -52 4 -29 1 -32 4 -35 39 -4 40 -11 32 -28 -34 l-10
-41 -63 0 c-34 0 -77 6 -95 13 -25 10 -45 11 -80 4 -26 -5 -56 -8 -67 -6 -11
3 -23 5 -27 5 -4 1 -12 10 -18 21 -12 22 -3 47 30 85 9 11 17 30 18 43 1 19
-1 20 -14 8 -8 -8 -14 -19 -14 -24 0 -4 -11 -19 -25 -32 -40 -38 -35 -92 14
-141 40 -40 58 -45 157 -39 17 1 36 -6 43 -14 9 -11 31 -16 67 -16 50 0 54 -2
60 -27 15 -70 24 -77 147 -109 37 -9 67 -20 67 -25 0 -4 -15 -3 -32 3 -121 37
-151 37 -188 -3 -20 -23 -34 -30 -49 -26 -18 4 -20 2 -15 -20 5 -19 3 -24 -7
-21 -8 3 -13 10 -12 16 2 6 -6 16 -17 22 -18 10 -19 8 -10 -15 8 -20 6 -25 -6
-25 -8 0 -14 7 -12 16 2 10 -3 19 -9 21 -7 3 -13 0 -13 -6 0 -6 -7 -11 -15
-11 -8 0 -15 7 -15 15 0 9 -8 19 -17 22 -13 5 -9 10 18 20 33 13 32 13 -26 8
-33 -3 -83 -13 -111 -22 -62 -19 -95 -12 -72 15 14 16 18 41 8 43 -16 2 -40
-15 -36 -26 2 -7 -17 -28 -44 -48 -40 -30 -47 -40 -43 -61 4 -17 1 -26 -7 -26
-10 0 -11 -20 -6 -84 11 -131 -6 -122 -72 39 -25 60 -33 132 -22 200 10 63 -1
90 -37 98 -66 15 -141 129 -163 250 -14 75 -30 108 -49 105 -13 -3 -16 -17
-17 -73 0 -39 5 -79 12 -90 7 -11 15 -45 19 -75 10 -88 -27 -155 -40 -72 -21
131 -33 158 -72 173 -39 15 -26 86 18 101 7 2 13 46 16 113 5 99 12 124 34
125 4 0 10 -16 13 -35 9 -47 78 -184 110 -217 25 -27 51 -34 131 -41 28 -3 21
-4 -25 -6 -62 -3 -63 -3 -30 -13 19 -6 78 -11 130 -12 127 -1 204 25 284 96
48 43 66 69 113 167 68 142 78 151 124 111z m-912 -154 c15 -18 15 -18 -6 -5
-15 9 -23 23 -22 39 1 21 2 21 6 5 3 -11 12 -29 22 -39z m1678 17 c-3 -10 -5
-4 -5 12 0 17 2 24 5 18 2 -7 2 -21 0 -30z m-1688 -61 c11 -8 10 -14 -3 -34
-18 -27 -46 -113 -46 -141 0 -10 18 -35 40 -56 44 -42 56 -80 19 -61 -11 7
-23 9 -27 6 -7 -8 10 -25 39 -40 26 -13 45 -66 24 -66 -18 0 -85 87 -85 110 0
10 -7 34 -15 53 -18 42 -21 208 -5 238 11 19 17 18 59 -9z m-92 -44 c-2 -13
-4 -5 -4 17 -1 22 1 32 4 23 2 -10 2 -28 0 -40z m1463 -112 c118 -6 145 -19
144 -70 -1 -41 -26 -73 -78 -101 -56 -30 -84 -137 -42 -162 22 -13 26 -55 9
-90 -8 -18 -13 -48 -11 -68 2 -19 2 -35 -2 -35 -13 0 -40 64 -40 95 0 19 -15
62 -35 99 -19 37 -35 77 -35 90 0 13 -8 34 -18 47 -23 30 -52 88 -52 104 0 7
-16 36 -35 64 -20 28 -33 56 -30 60 3 5 38 0 77 -10 40 -11 107 -21 148 -23z
m125 35 c-14 -12 -85 -24 -85 -13 0 16 13 22 54 22 23 0 36 -4 31 -9z m-1008
-17 c-3 -3 -12 -4 -19 -1 -8 3 -5 6 6 6 11 1 17 -2 13 -5z m1210 -46 c-3 -8
-6 -5 -6 6 -1 11 2 17 5 13 3 -3 4 -12 1 -19z m-527 -187 c38 -9 64 -27 56
-39 -4 -7 -24 -6 -64 4 -31 7 -76 13 -99 14 -24 0 -43 4 -43 9 0 15 105 24
150 12z m-587 -288 l30 -28 -5 28 c-5 23 -3 27 11 21 9 -4 28 -9 44 -12 15 -2
27 -8 27 -13 0 -5 9 -9 19 -9 11 0 23 -4 26 -10 3 -5 11 -10 16 -10 6 0 8 4 4
9 -9 16 34 23 83 15 26 -4 56 -7 67 -5 99 11 188 12 198 2 14 -14 -38 -71 -66
-71 -10 0 -21 -9 -24 -19 -6 -25 -55 -45 -93 -38 -16 4 -32 2 -35 -3 -3 -6 6
-10 22 -11 15 -1 39 -5 53 -10 16 -5 -14 -7 -86 -5 -77 2 -122 9 -144 20 -18
8 -36 13 -41 10 -10 -6 -7 -33 5 -52 8 -13 72 -45 115 -57 18 -6 20 -9 10 -16
-9 -6 -2 -9 24 -9 25 0 36 4 31 11 -7 12 27 4 56 -12 13 -7 13 -8 0 -9 -13 0
-13 -1 0 -10 20 -13 77 -13 85 0 3 6 1 10 -5 10 -6 0 -9 4 -6 8 3 5 28 9 55
10 42 1 53 -3 62 -20 9 -17 17 -20 55 -14 42 5 44 4 44 -19 0 -13 -4 -27 -10
-30 -5 -3 -10 -15 -10 -26 0 -11 -7 -19 -16 -19 -9 0 -25 -10 -36 -22 l-20
-23 -18 23 c-10 12 -21 22 -25 22 -4 0 -22 -16 -41 -35 -18 -19 -39 -35 -47
-35 -7 0 -29 -11 -49 -25 -20 -14 -49 -25 -64 -25 -15 0 -35 -7 -45 -16 -19
-17 -79 -11 -79 7 0 6 -4 8 -9 5 -5 -3 -35 8 -67 25 -69 36 -85 48 -83 63 3
25 -2 36 -15 36 -16 0 -80 83 -96 124 -8 21 -7 32 5 49 19 28 19 74 -1 133
-19 55 -12 94 16 94 11 0 20 5 20 10 0 18 23 10 53 -17z m667 8 c-5 -11 -15
-23 -20 -26 -14 -9 -12 19 2 33 19 19 30 14 18 -7z m-2 -124 c16 -13 15 -22
-4 -41 -25 -26 -47 -20 -40 9 6 22 3 25 -19 25 -26 0 -34 15 -12 23 15 6 58
-3 75 -16z m-1168 -609 c-1 -17 -25 -49 -32 -43 -10 11 5 55 18 55 8 0 14 -6
14 -12z m133 -8 c3 -11 12 -20 20 -20 22 0 51 -74 44 -113 -3 -19 -1 -39 5
-45 21 -21 0 -57 -48 -79 -25 -13 -50 -20 -55 -17 -5 2 -1 23 7 45 13 31 14
42 4 54 -7 8 -11 15 -9 16 2 0 11 2 20 4 9 1 28 10 41 19 30 20 27 61 -6 78
-33 17 -58 48 -52 64 8 20 23 17 29 -6z m-195 -32 c-11 -52 -55 -109 -93 -123
-25 -9 -30 -6 -61 30 -36 44 -35 49 14 58 33 7 43 -6 17 -20 -13 -8 -13 -11
-1 -28 14 -19 15 -19 29 13 17 40 77 112 93 112 9 0 9 -11 2 -42z m-281 16 c6
-16 -45 -67 -58 -58 -9 5 2 58 15 66 18 12 36 9 43 -8z m43 8 c0 -13 -12 -22
-22 -16 -10 6 -1 24 13 24 5 0 9 -4 9 -8z m1813 -32 c14 -22 22 -40 18 -40
-16 0 -61 46 -61 63 0 28 15 20 43 -23z m-1413 -10 c0 -11 -4 -20 -10 -20 -5
0 -10 9 -10 20 0 11 5 20 10 20 6 0 10 -9 10 -20z m-380 4 c0 -18 -65 -58 -80
-49 -15 9 -2 25 34 41 34 15 46 17 46 8z m344 -16 c16 -62 1 -98 -41 -98 -16
0 -23 -6 -23 -19 0 -11 -4 -23 -10 -26 -6 -4 -10 6 -10 22 0 16 -5 34 -11 40
-18 18 -2 56 33 80 42 28 54 28 62 1z m1646 2 c0 -5 -5 -10 -11 -10 -5 0 -7 5
-4 10 3 6 8 10 11 10 2 0 4 -4 4 -10z m-1972 -52 c6 -7 13 -30 17 -50 4 -21
12 -38 18 -38 8 0 8 -3 0 -11 -8 -8 -17 -8 -32 0 -11 7 -36 11 -56 9 -19 -1
-38 1 -42 5 -11 12 -12 37 -1 37 5 0 23 14 40 30 33 33 41 36 56 18z m-351
-15 c-9 -9 -19 -14 -23 -11 -10 10 6 28 24 28 15 0 15 -1 -1 -17z m2173 -23
c15 -45 15 -46 -20 -55 -41 -10 -64 14 -56 58 6 32 11 37 35 37 24 0 30 -6 41
-40z m-2220 11 c0 -19 -43 -61 -62 -61 -10 0 0 49 15 68 15 19 47 15 47 -7z
m580 -5 c0 -3 -4 -8 -10 -11 -5 -3 -10 -1 -10 4 0 6 5 11 10 11 6 0 10 -2 10
-4z m1458 -13 c2 -8 -5 -13 -17 -13 -12 0 -21 6 -21 16 0 18 31 15 38 -3z
m-2001 -39 c-36 -34 -57 -37 -57 -9 0 14 21 25 50 25 10 0 21 7 24 16 4 9 10
14 13 10 4 -4 -9 -23 -30 -42z m212 9 c-2 -57 -14 -124 -23 -122 -5 0 -12 -5
-16 -11 -4 -7 -14 -10 -21 -8 -9 3 -7 10 7 24 15 15 19 30 16 57 -3 23 0 37 7
37 6 0 11 5 11 11 0 5 -4 7 -10 4 -11 -7 -14 18 -3 28 16 16 33 5 32 -20z
m-64 0 c-16 -39 -17 -54 -5 -68 15 -18 6 -45 -13 -45 -25 0 -40 26 -28 49 10
18 7 22 -19 36 -41 21 -39 39 5 32 19 -3 37 -1 40 4 11 17 27 10 20 -8z m542
-26 c-12 -19 -12 -25 0 -44 20 -30 9 -45 -21 -31 -38 17 -39 54 -2 89 33 31
47 23 23 -14z m-167 3 c0 -22 -31 -35 -42 -18 -17 27 -9 45 17 40 15 -3 25
-11 25 -22z m1530 -10 c16 -16 30 -37 30 -45 0 -9 12 -32 26 -51 24 -30 24
-34 8 -34 -34 1 -56 28 -78 94 -13 37 -21 66 -20 66 2 0 17 -13 34 -30z m326
11 c-7 -11 -81 -21 -108 -13 -21 5 -21 6 -2 13 27 11 116 11 110 0z m-2332
-18 c25 -69 25 -73 4 -84 -19 -10 -20 -9 -13 22 7 30 6 32 -9 20 -18 -15 -21
-5 -10 37 8 26 19 29 28 5z m521 -13 c-5 -17 -9 -19 -21 -9 -12 10 -12 13 3
24 22 16 27 13 18 -15z m-405 10 c0 -5 -2 -10 -4 -10 -3 0 -8 5 -11 10 -3 6
-1 10 4 10 6 0 11 -4 11 -10z m294 -15 c-4 -8 -10 -13 -15 -10 -4 3 -6 12 -3
20 4 8 10 13 15 10 4 -3 6 -12 3 -20z m1454 -13 c2 -15 -2 -22 -12 -22 -9 0
-16 4 -16 9 0 5 -3 17 -6 26 -5 13 -2 16 12 13 11 -2 20 -13 22 -26z m-1943
-58 c-13 -20 -24 -24 -65 -24 -27 0 -60 4 -75 10 -26 10 -26 10 -7 30 12 13
25 18 35 14 10 -4 17 -1 17 6 0 9 12 11 38 7 32 -4 41 -1 53 17 14 21 14 21
17 -7 2 -16 -4 -39 -13 -53z m301 49 c-15 -67 -17 -83 -7 -83 6 0 11 8 11 18
0 33 24 52 73 58 45 6 47 6 47 -17 0 -13 -9 -39 -21 -58 -19 -32 -22 -33 -70
-29 -28 3 -57 12 -66 21 -14 14 -14 18 1 48 9 17 16 40 16 51 0 10 5 18 11 18
7 0 9 -10 5 -27z m2170 -37 c3 -14 2 -26 -2 -26 -20 1 -32 17 -36 52 -4 36 -3
37 14 19 9 -11 20 -31 24 -45z m546 42 c-7 -7 -12 -8 -12 -2 0 14 12 26 19 19
2 -3 -1 -11 -7 -17z m-3445 -10 c-3 -8 -6 -5 -6 6 -1 11 2 17 5 13 3 -3 4 -12
1 -19z m2483 -19 c10 -35 9 -44 -4 -57 -14 -14 -80 -21 -91 -10 -9 9 30 78 41
74 7 -3 10 3 7 15 -4 14 0 19 15 19 16 0 24 -10 32 -41z m120 31 c0 -5 -4 -10
-10 -10 -5 0 -10 5 -10 10 0 6 5 10 10 10 6 0 10 -4 10 -10z m548 1 c10 -6 7
-10 -12 -15 -18 -4 -24 -11 -20 -24 5 -14 4 -15 -5 -2 -26 37 0 65 37 41z
m-1830 -11 c6 0 12 -4 12 -10 0 -11 -30 -13 -54 -4 -25 9 -19 27 7 20 12 -3
28 -6 35 -6z m1972 -21 c0 -5 -6 -9 -14 -9 -15 0 -28 24 -19 34 7 7 33 -13 33
-25z m-2219 -22 c-8 -8 -11 -5 -11 9 0 27 14 41 18 19 2 -9 -1 -22 -7 -28z
m1894 34 c3 -5 19 -12 36 -16 23 -5 34 -3 44 12 13 17 14 17 20 -2 4 -11 14
-34 23 -51 24 -50 11 -66 -48 -62 -35 3 -56 10 -71 26 -24 27 -51 87 -42 96 9
9 31 7 38 -3z m266 -13 c27 -33 23 -41 -13 -33 -41 9 -52 19 -45 39 9 23 36
20 58 -6z m-2204 -2 c-3 -8 -9 -30 -12 -48 -10 -54 -34 -77 -87 -84 l-47 -7 4
29 c2 16 4 38 4 49 1 11 6 27 11 35 8 13 11 13 19 1 7 -11 17 -9 52 13 50 29
64 32 56 12z m1637 -26 c-14 -14 -38 5 -30 26 6 16 8 16 23 1 11 -11 14 -20 7
-27z m96 31 c0 -5 -7 -11 -15 -15 -15 -5 -20 5 -8 17 9 10 23 9 23 -2z m-1504
-28 c18 11 36 -10 29 -32 -9 -29 -39 -26 -60 5 -20 32 -13 68 9 39 7 -10 17
-15 22 -12z m1577 3 c19 -14 23 -36 7 -36 -5 0 -10 5 -10 11 0 6 -7 9 -15 6
-16 -7 -29 8 -20 23 8 13 16 12 38 -4z m837 -12 c45 -30 43 -28 31 -52 -5 -9
-12 -25 -15 -36 -6 -18 -8 -18 -25 -2 -17 16 -22 16 -58 1 -24 -10 -47 -13
-60 -8 -20 8 -20 10 -6 45 11 28 24 40 49 48 19 7 32 16 29 21 -11 17 15 9 55
-17z m-3444 -26 c16 -18 34 -43 41 -55 11 -19 10 -22 -10 -25 -12 -2 -38 0
-57 5 -30 8 -36 6 -48 -12 -16 -23 -47 -29 -39 -7 3 8 -5 29 -19 47 -29 39
-20 54 39 68 62 13 61 14 93 -21z m1144 -66 c7 -40 9 -78 7 -85 -4 -7 -6 -6
-6 4 -1 9 -7 29 -15 44 -14 26 -14 25 -15 -34 0 -66 -6 -85 -24 -78 -7 2 -29
-4 -49 -14 -55 -28 -76 -25 -70 9 2 15 12 36 21 46 12 14 13 20 4 23 -15 5
-17 33 -3 33 6 0 10 -5 10 -11 0 -6 17 3 37 20 21 17 43 31 50 31 7 0 13 5 13
10 0 6 -4 10 -9 10 -12 0 -22 43 -12 50 4 3 11 14 15 24 12 35 34 -3 46 -82z
m1995 69 c-3 -6 -14 -11 -23 -11 -15 1 -15 2 2 15 21 16 32 13 21 -4z m-2169
-28 c-11 -11 -19 6 -11 24 8 17 8 17 12 0 3 -10 2 -21 -1 -24z m-32 -23 c8
-37 7 -45 -9 -56 -20 -15 -55 -9 -67 10 -4 6 -11 7 -15 2 -4 -5 -2 -11 5 -13
14 -5 17 -53 2 -53 -5 0 -10 8 -10 19 0 10 -6 31 -14 46 -8 15 -12 34 -9 42 7
17 82 54 98 49 6 -1 14 -22 19 -46z m2336 43 c0 -18 -21 -83 -28 -87 -5 -3 -9
14 -11 36 -1 25 3 44 11 49 16 11 28 11 28 2z m-3485 -13 c3 -5 2 -10 -4 -10
-5 0 -13 5 -16 10 -3 6 -2 10 4 10 5 0 13 -4 16 -10z m575 -14 c41 -9 74 -116
38 -124 -26 -5 -89 26 -95 48 -3 11 -9 20 -14 20 -12 0 -11 -17 3 -39 12 -20
5 -51 -12 -51 -5 0 -10 17 -10 38 0 21 -5 43 -11 49 -19 19 -6 57 21 64 25 7
30 6 80 -5z m80 -48 c0 -13 0 -14 -29 32 l-23 35 26 -28 c14 -15 26 -33 26
-39z m2235 26 c0 -21 -5 -29 -17 -28 -12 1 -18 -5 -18 -18 0 -11 -8 -33 -17
-49 -13 -23 -24 -29 -43 -27 -23 3 -25 7 -24 47 1 31 6 48 20 57 10 7 24 17
29 22 21 17 50 31 60 28 6 -1 10 -16 10 -32z m511 19 c3 -10 10 -26 15 -36 14
-27 2 -37 -42 -37 -28 0 -39 4 -36 13 2 6 9 13 15 13 7 1 20 2 30 3 14 2 13 4
-5 11 -33 13 -30 50 4 50 7 0 16 -8 19 -17z m-3090 -18 c9 -38 -2 -41 -19 -6
-13 26 -13 31 -1 31 7 0 16 -11 20 -25z m31 3 c-3 -8 -6 -5 -6 6 -1 11 2 17 5
13 3 -3 4 -12 1 -19z m900 2 c-1 -11 -5 -20 -9 -20 -4 0 -8 9 -8 20 0 11 4 20
9 20 6 0 9 -9 8 -20z m1093 6 c0 -7 -9 -16 -20 -19 -15 -4 -20 0 -20 14 0 12
7 19 20 19 11 0 20 -6 20 -14z m378 -19 c7 -18 12 -40 12 -49 0 -19 -42 -38
-69 -31 -19 5 -22 12 -19 51 3 46 9 52 58 61 4 1 11 -14 18 -32z m615 -19 c-3
-16 -11 -28 -19 -28 -11 0 -11 6 -3 27 5 14 7 34 4 42 -5 14 -4 14 9 1 9 -9
13 -25 9 -42z m-3345 9 c2 -11 -3 -17 -16 -17 -20 0 -36 23 -24 34 11 12 37 1
40 -17z m75 -45 c-3 -7 -12 -11 -20 -8 -8 3 -19 6 -24 6 -5 0 -9 5 -9 10 0 6
9 10 21 10 18 0 20 4 15 28 l-5 27 13 -30 c8 -16 11 -35 9 -43z m1227 64 c0
-2 -7 -7 -16 -10 -8 -3 -12 -2 -9 4 6 10 25 14 25 6z m1259 -9 c6 -8 8 -17 5
-20 -4 -3 2 -14 11 -24 24 -23 4 -28 -35 -8 -21 11 -30 21 -26 31 3 9 6 20 6
25 0 14 26 11 39 -4z m1196 3 c-3 -5 -11 -10 -16 -10 -6 0 -7 5 -4 10 3 6 11
10 16 10 6 0 7 -4 4 -10z m-2993 -19 c8 -10 22 -21 29 -23 7 -2 10 -11 6 -21
-8 -21 -37 -11 -37 13 0 10 -7 20 -15 24 -15 6 -21 26 -7 26 4 0 15 -8 24 -19z
m1841 -1 c3 -11 1 -20 -4 -20 -5 0 -9 9 -9 20 0 11 2 20 4 20 2 0 6 -9 9 -20z
m-2205 -13 c2 -10 -3 -17 -11 -17 -16 0 -30 24 -19 34 10 10 27 1 30 -17z
m320 -3 c2 -11 -4 -26 -12 -33 -12 -10 -17 -8 -26 10 -9 17 -9 20 0 14 9 -5
10 -1 5 15 -6 18 -3 21 12 18 10 -2 19 -13 21 -24z m1672 6 c0 -5 -4 -10 -10
-10 -5 0 -10 5 -10 10 0 6 5 10 10 10 6 0 10 -4 10 -10z m580 0 c0 -5 -5 -10
-11 -10 -5 0 -7 5 -4 10 3 6 8 10 11 10 2 0 4 -4 4 -10z m832 -41 c3 -20 0
-33 -8 -36 -23 -9 -34 7 -34 48 0 36 2 39 19 30 10 -6 21 -24 23 -42z m-2802
31 c0 -5 -2 -10 -4 -10 -3 0 -8 5 -11 10 -3 6 -1 10 4 10 6 0 11 -4 11 -10z
m2095 -17 c-4 -35 -17 -73 -26 -73 -5 0 -6 6 -3 14 3 8 1 23 -4 33 -8 13 -6
22 6 34 20 19 29 17 27 -8z m551 -13 c1 -19 7 -36 13 -38 13 -4 15 -42 3 -42
-4 0 -14 6 -20 13 -7 6 -17 13 -22 13 -6 1 -14 2 -20 3 -16 2 -12 38 5 45 8 3
15 15 15 27 0 35 24 15 26 -21z m-2713 10 c9 -13 20 -18 31 -14 15 6 17 2 14
-22 -4 -35 -33 -45 -43 -15 -8 27 -35 27 -35 1 0 -11 -4 -20 -10 -20 -5 0 -10
4 -10 9 0 6 -12 9 -26 8 -15 -1 -29 3 -31 9 -2 6 8 10 27 9 16 -1 30 2 30 7 0
4 7 8 16 8 11 0 14 6 9 20 -8 26 10 26 28 0z m2647 0 c0 -10 -50 -23 -58 -15
-9 8 31 33 45 28 7 -3 13 -9 13 -13z m120 -32 c0 -16 -4 -28 -9 -28 -12 0 -20
36 -14 61 8 27 23 5 23 -33z m-3440 27 c0 -8 -7 -15 -16 -15 -11 0 -14 -5 -9
-17 12 -33 10 -38 -17 -41 -29 -3 -29 -2 -32 55 -1 10 9 20 24 24 40 11 50 10
50 -6z m41 -6 c-3 -8 -5 -24 -5 -35 -1 -32 -26 -17 -26 15 0 15 3 31 7 35 11
11 28 0 24 -15z m2192 6 c4 -8 2 -17 -4 -21 -11 -6 -39 13 -39 27 0 15 37 10
43 -6z m537 -16 c0 -15 -30 -23 -42 -11 -6 6 -8 18 -4 27 4 13 10 14 26 5 11
-6 20 -15 20 -21z m453 4 c-4 -10 -13 -23 -21 -29 -12 -8 -12 -15 -3 -32 7
-13 9 -27 6 -32 -3 -6 0 -10 8 -10 12 0 13 7 7 35 -9 41 3 38 26 -6 23 -45 6
-59 -72 -59 -56 0 -75 7 -80 30 0 3 -6 18 -12 33 -24 58 -6 75 59 55 36 -10
41 -10 55 10 18 26 36 29 27 5z m-2301 -28 c-2 -19 -8 -32 -13 -29 -5 3 -6 10
-3 16 4 6 1 9 -7 6 -8 -3 -14 -19 -14 -39 0 -44 -27 -48 -30 -4 -2 23 6 37 29
57 17 15 33 28 36 28 4 0 4 -16 2 -35z m1712 20 c3 -8 1 -15 -4 -15 -6 0 -10
7 -10 15 0 8 2 15 4 15 2 0 6 -7 10 -15z m107 -25 c22 0 39 -5 39 -11 0 -8
-12 -9 -37 -5 -21 4 -44 8 -50 8 -14 1 -18 30 -5 42 4 4 8 -2 10 -13 3 -17 10
-21 43 -21z m227 18 c0 -13 2 -32 4 -43 2 -15 -3 -20 -21 -20 -30 0 -37 17
-15 39 9 9 13 23 10 31 -3 9 0 15 8 15 8 0 14 -10 14 -22z m525 -15 c8 -49 35
-89 50 -74 15 15 27 14 27 -4 0 -8 -7 -15 -15 -15 -8 0 -15 -6 -15 -14 0 -8 7
-16 15 -20 16 -6 21 -61 6 -70 -5 -3 -27 14 -50 39 l-40 44 2 75 c2 82 11 98
20 39z m-3593 -37 c0 -6 -10 -17 -21 -24 -20 -13 -21 -12 -15 12 3 14 2 26 -3
26 -5 0 -4 11 2 24 l11 23 13 -24 c7 -14 13 -30 13 -37z m300 49 c0 -8 -6 -15
-14 -15 -20 0 -29 17 -14 23 22 9 28 7 28 -8z m1920 0 c7 -8 19 -15 27 -15 11
0 13 -10 9 -47 -4 -25 -7 -48 -9 -50 -2 -1 -27 8 -55 22 -57 28 -72 31 -54 13
13 -13 16 -28 5 -28 -5 0 -16 14 -25 31 -18 30 -18 31 11 60 32 32 71 38 91
14z m1457 -7 c-3 -8 -6 -5 -6 6 -1 11 2 17 5 13 3 -3 4 -12 1 -19z m-3107 8
c0 -3 -4 -8 -10 -11 -5 -3 -10 -1 -10 4 0 6 5 11 10 11 6 0 10 -2 10 -4z
m1790 -22 c0 -8 -4 -12 -10 -9 -5 3 -10 13 -10 21 0 8 5 12 10 9 6 -3 10 -13
10 -21z m60 5 c9 -16 18 -19 36 -15 20 5 24 3 24 -18 0 -14 14 -39 33 -58 32
-33 32 -33 9 -36 -54 -8 -112 45 -136 126 -10 29 19 31 34 1z m-2216 -46 c-4
-43 -3 -45 7 -20 11 28 40 36 68 18 11 -7 11 -15 1 -45 -11 -35 -13 -36 -48
-31 -62 11 -65 13 -58 45 3 17 9 43 12 60 10 46 22 26 18 -27z m676 49 c0 -18
-28 -45 -39 -38 -9 6 -8 13 5 27 18 20 34 25 34 11z m2130 2 c0 -3 -7 -13 -16
-21 -10 -10 -13 -25 -10 -39 4 -14 2 -24 -4 -24 -5 0 -11 7 -11 15 -1 8 -2 21
-3 28 -3 14 23 47 36 47 4 0 8 -3 8 -6z m120 -33 c7 -24 6 -31 -3 -28 -7 2
-13 19 -15 38 -4 40 5 35 18 -10z m-2621 7 c0 -7 -4 -22 -8 -33 -5 -11 -4 -25
1 -32 12 -15 0 -17 -20 -4 -12 7 -9 48 5 74 7 12 23 8 22 -5z m745 -19 c10
-17 16 -32 14 -35 -8 -7 -48 36 -48 51 0 24 14 17 34 -16z m1289 16 c1 -5 -6
-11 -15 -13 -11 -2 -18 3 -18 13 0 17 30 18 33 0z m-2080 -21 c-4 -12 -8 -13
-14 -3 -9 15 -2 32 11 24 5 -3 6 -13 3 -21z m-33 2 c0 -8 -8 -17 -17 -19 -13
-4 -12 -5 5 -6 12 0 25 -8 28 -16 8 -19 -13 -45 -31 -39 -14 6 -26 60 -18 82
7 17 33 15 33 -2z m133 -59 c-7 -39 -6 -54 1 -51 6 2 12 21 13 41 2 46 9 52
71 60 60 7 63 2 30 -64 -18 -35 -29 -45 -61 -54 -58 -15 -83 -9 -80 21 10 93
16 121 25 112 7 -7 7 -29 1 -65z m-439 57 c9 -3 16 -11 16 -16 0 -6 -6 -8 -14
-5 -8 3 -17 1 -19 -6 -2 -7 -7 -9 -11 -6 -6 6 2 39 9 39 2 0 10 -3 19 -6z
m246 2 c0 -3 -4 -8 -10 -11 -5 -3 -10 -1 -10 4 0 6 5 11 10 11 6 0 10 -2 10
-4z m2244 -22 c7 -18 -21 -31 -36 -16 -15 15 -2 43 16 36 8 -3 17 -12 20 -20z
m316 9 c0 -10 7 -27 15 -37 32 -42 15 -67 -53 -79 -26 -5 -34 -3 -39 11 -4 9
-15 28 -25 41 -18 23 -25 71 -10 71 4 0 16 -7 26 -15 28 -21 54 -19 61 5 8 25
25 26 25 3z m505 7 c3 -5 1 -10 -4 -10 -6 0 -11 5 -11 10 0 6 2 10 4 10 3 0 8
-4 11 -10z m-1637 -12 c7 -7 12 -22 12 -35 0 -14 6 -23 15 -23 8 0 15 -5 15
-11 0 -7 12 -9 36 -5 30 6 36 4 41 -13 3 -12 10 -18 17 -14 6 4 5 -1 -3 -10
-9 -11 -10 -17 -2 -17 6 0 11 -5 11 -11 0 -5 -5 -7 -12 -3 -6 4 -8 3 -4 -4 10
-16 -52 -71 -112 -99 -48 -22 -64 -25 -140 -21 -88 4 -128 18 -179 62 -28 24
-30 40 -4 26 24 -12 111 -14 111 -1 0 4 -8 19 -18 32 -10 13 -24 43 -31 66
-12 37 -12 43 5 61 25 26 42 29 145 31 54 1 89 -3 97 -11z m237 -64 c-19 -38
-43 -80 -53 -93 -9 -12 -27 -42 -39 -64 -15 -28 -23 -35 -23 -22 1 30 137 260
148 250 2 -2 -13 -34 -33 -71z m355 26 c25 -35 25 -40 2 -40 -37 0 -112 32
-112 47 0 49 74 44 110 -7z m371 -13 c-14 -14 -24 12 -16 41 l8 27 8 -30 c5
-16 5 -33 0 -38z m339 53 c0 -5 -4 -10 -10 -10 -5 0 -10 5 -10 10 0 6 5 10 10
10 6 0 10 -4 10 -10z m-2084 -16 c-3 -9 -6 -18 -6 -20 0 -2 -4 -4 -9 -4 -5 0
-7 9 -4 20 3 11 10 20 15 20 6 0 7 -7 4 -16z m-654 -28 c4 -18 0 -26 -14 -30
-14 -3 -18 -1 -14 11 3 8 6 24 6 34 0 27 16 16 22 -15z m501 2 c-12 -67 -33
-97 -75 -109 -22 -5 -46 -8 -53 -5 -16 6 -13 58 4 64 17 6 13 22 -5 22 -10 0
-14 7 -12 22 3 25 28 37 28 14 0 -26 18 -27 56 -1 51 35 65 33 57 -7z m67 12
c0 -11 -4 -20 -10 -20 -5 0 -10 9 -10 20 0 11 5 20 10 20 6 0 10 -9 10 -20z
m2590 -20 c0 -52 -57 -120 -101 -120 -27 0 -28 2 -22 33 15 80 27 102 63 114
55 19 60 17 60 -27z m-883 8 c-3 -8 -6 -5 -6 6 -1 11 2 17 5 13 3 -3 4 -12 1
-19z m398 12 c3 -5 1 -10 -4 -10 -6 0 -11 5 -11 10 0 6 2 10 4 10 3 0 8 -4 11
-10z m-317 -31 c17 -27 11 -32 -22 -20 -26 10 -32 21 -19 34 12 13 28 7 41
-14z m-2638 -17 c15 -12 29 -37 37 -65 6 -25 14 -51 18 -57 4 -6 -7 -10 -28
-10 -22 0 -37 6 -41 15 -3 8 -1 15 4 15 6 0 10 7 10 16 0 14 -3 14 -16 4 -21
-18 -47 9 -47 49 0 17 -4 28 -9 25 -4 -3 -8 -14 -8 -25 0 -29 -23 -18 -35 15
-7 21 -6 29 5 37 21 14 80 3 110 -19z m406 -11 c-4 -6 -14 -11 -22 -11 -12 0
-13 4 -3 21 7 14 14 18 21 11 6 -6 7 -15 4 -21z m829 -12 c10 -22 40 -58 67
-80 31 -26 48 -49 48 -63 0 -12 7 -31 15 -42 19 -25 19 -43 -1 -65 -9 -10 -14
-24 -12 -31 3 -8 11 -2 20 16 l15 28 19 -28 c31 -45 45 -82 33 -89 -20 -13
-102 -7 -117 8 -13 13 -13 19 2 48 9 17 16 45 16 60 0 15 5 29 11 31 19 6 -37
104 -76 134 -20 15 -42 38 -49 51 -12 24 -12 24 -30 4 -14 -15 -15 -24 -7 -40
15 -27 14 -51 -1 -51 -23 0 -38 16 -44 46 -5 24 0 36 28 66 18 20 36 36 39 37
3 1 14 -17 24 -40z m925 22 c0 -6 -4 -12 -9 -15 -5 -3 -7 -15 -4 -26 3 -13 -1
-22 -12 -26 -21 -8 -31 3 -40 44 -6 31 -6 32 29 32 20 0 36 -4 36 -9z m220
-12 c0 -11 -27 -12 -34 0 -3 4 -3 11 0 14 8 8 34 -3 34 -14z m682 9 c7 -19 -3
-58 -14 -58 -6 0 -8 11 -6 25 4 17 1 25 -8 25 -9 0 -14 -12 -14 -32 0 -18 -4
-39 -9 -47 -8 -13 -12 -13 -28 0 -16 13 -17 12 -5 -3 17 -21 8 -38 -19 -38
-15 0 -19 7 -19 39 0 22 6 44 15 51 8 7 12 16 9 21 -11 18 8 29 51 29 25 0 45
-5 47 -12z m-2152 -18 c0 -14 -88 -56 -97 -46 -4 4 3 16 17 26 22 17 35 22 73
29 4 0 7 -4 7 -9z m1689 -16 c16 -35 7 -44 -44 -44 -41 0 -44 2 -42 25 4 49
66 62 86 19z m551 17 c0 -13 -29 -35 -37 -28 -7 8 15 37 28 37 5 0 9 -4 9 -9z
m120 -32 c0 -28 -4 -39 -12 -37 -18 6 -22 45 -6 62 18 21 18 21 18 -25z
m-3520 21 c0 -5 -4 -10 -10 -10 -5 0 -10 5 -10 10 0 6 5 10 10 10 6 0 10 -4
10 -10z m410 -16 c0 -16 -16 -19 -25 -4 -8 13 4 32 16 25 5 -4 9 -13 9 -21z
m980 16 c0 -5 -7 -10 -16 -10 -8 0 -12 5 -9 10 3 6 10 10 16 10 5 0 9 -4 9
-10z m930 -15 c0 -15 -8 -29 -21 -36 -20 -10 -21 -9 -15 17 6 24 21 43 34 44
1 0 2 -11 2 -25z m-2201 -35 c1 -13 0 -13 -9 0 -5 8 -9 24 -9 35 l0 20 9 -20
c5 -11 9 -27 9 -35z m-71 16 c6 -27 -11 -38 -33 -22 -17 12 -17 16 -6 30 17
20 35 16 39 -8z m310 12 c15 -15 16 -58 2 -58 -5 0 -13 0 -16 0 -4 0 -8 16 -9
35 -2 37 3 43 23 23z m2366 3 c3 -5 -1 -11 -9 -15 -15 -6 -29 7 -18 18 9 9 21
8 27 -3z m218 -16 c-2 -11 -10 -27 -18 -35 -8 -8 -25 -35 -37 -60 -20 -40 -26
-45 -59 -48 l-38 -3 14 33 c14 33 55 56 43 24 -4 -9 -3 -16 2 -16 10 0 21 35
21 66 0 11 9 30 21 43 25 27 56 24 51 -4z m508 5 c13 -25 5 -40 -21 -40 -25 0
-35 25 -19 45 17 20 27 19 40 -5z m-2869 1 c41 -1 75 -41 94 -109 9 -33 -19
-39 -69 -14 -41 21 -72 64 -61 83 4 5 2 9 -4 9 -5 0 -11 -8 -14 -17 -3 -14 -6
-12 -15 10 -15 35 -10 44 20 41 13 -1 35 -3 49 -3z m1655 -38 c-6 -48 -37 -93
-64 -93 -20 0 -8 57 17 85 10 11 21 28 24 38 4 9 12 17 18 17 8 0 10 -14 5
-47z m293 23 c17 -31 7 -60 -25 -74 -28 -14 -56 -16 -38 -4 11 7 24 48 27 85
2 24 21 21 36 -7z m-1689 4 c0 -5 -4 -10 -10 -10 -5 0 -10 5 -10 10 0 6 5 10
10 10 6 0 10 -4 10 -10z m2299 -77 l-12 -28 -9 34 c-7 25 -6 41 3 59 l13 24 8
-30 c5 -18 4 -42 -3 -59z m-2691 53 c3 -13 -1 -17 -14 -14 -11 2 -20 11 -22
22 -3 13 1 17 14 14 11 -2 20 -11 22 -22z m-261 -20 c-4 -9 -11 -16 -18 -16
-6 0 -8 7 -5 16 3 9 6 21 6 27 0 8 3 8 11 0 7 -7 9 -19 6 -27z m593 14 c0 -11
-4 -20 -10 -20 -5 0 -10 9 -10 20 0 11 5 20 10 20 6 0 10 -9 10 -20z m718 -26
c-3 -31 -16 -39 -38 -23 -11 8 -12 12 -2 16 6 2 12 13 12 22 0 10 3 21 7 24
12 13 25 -10 21 -39z m1802 21 c0 -14 -4 -25 -10 -25 -11 0 -14 33 -3 43 11
11 13 8 13 -18z m80 -16 c0 -17 -6 -32 -15 -36 -23 -8 -25 -2 -12 39 13 42 27
41 27 -3z m360 20 c0 -25 -33 -22 -38 4 -2 12 3 17 17 17 15 0 21 -6 21 -21z
m-2730 -4 c0 -8 -4 -15 -10 -15 -5 0 -10 7 -10 15 0 8 5 15 10 15 6 0 10 -7
10 -15z m150 -13 c0 -15 -2 -15 -10 -2 -13 20 -13 33 0 25 6 -3 10 -14 10 -23z
m80 7 c0 -24 -23 -21 -28 4 -2 10 3 17 12 17 10 0 16 -9 16 -21z m-1131 -20
c-20 -12 -26 -11 -33 7 -4 12 -2 15 9 11 8 -4 18 -1 22 5 5 9 8 8 11 -1 2 -7
-2 -17 -9 -22z m2342 -2 c-8 -8 -11 -7 -11 4 0 20 13 34 18 19 3 -7 -1 -17 -7
-23z m547 17 c12 -21 3 -72 -14 -78 -16 -6 -18 3 -4 38 6 16 6 27 0 31 -6 4
-10 10 -10 16 0 15 18 11 28 -7z m70 4 c19 -19 14 -30 -10 -26 -13 2 -24 11
-26 21 -4 20 18 23 36 5z m-3048 -8 c0 -5 -5 -10 -11 -10 -5 0 -7 5 -4 10 3 6
8 10 11 10 2 0 4 -4 4 -10z m718 -2 c15 -15 16 -48 2 -48 -5 0 -13 -1 -16 -2
-4 -2 -8 12 -10 30 -4 34 4 40 24 20z m90 -11 c4 -20 -25 -34 -39 -20 -14 14
1 45 20 41 9 -2 17 -11 19 -21z m66 7 c3 -8 2 -12 -4 -9 -6 3 -10 10 -10 16 0
14 7 11 14 -7z m2576 -5 c0 -14 -5 -19 -17 -17 -26 5 -29 38 -4 38 15 0 21 -6
21 -21z m320 14 c0 -14 -19 -38 -25 -32 -8 8 5 39 16 39 5 0 9 -3 9 -7z
m-2419 -36 c-8 -8 -11 -7 -11 4 0 20 13 34 18 19 3 -7 -1 -17 -7 -23z m937 -8
c-18 -15 -38 -28 -44 -29 -6 0 -19 -9 -29 -20 -10 -11 -23 -20 -29 -20 -14 0
75 90 99 100 36 14 37 -2 3 -31z m1110 22 c3 -8 -1 -12 -9 -9 -7 2 -15 10 -17
17 -3 8 1 12 9 9 7 -2 15 -10 17 -17z m-2998 5 c0 -3 -4 -8 -10 -11 -5 -3 -10
-1 -10 4 0 6 5 11 10 11 6 0 10 -2 10 -4z m550 0 c0 -2 -3 -11 -6 -20 -9 -23
-24 -20 -24 4 0 11 7 20 15 20 8 0 15 -2 15 -4z m1590 -18 c0 -16 -3 -19 -11
-11 -6 6 -8 16 -5 22 11 17 16 13 16 -11z m1050 9 c0 -7 -9 -18 -20 -25 -16
-10 -20 -10 -20 1 0 14 20 37 32 37 4 0 8 -6 8 -13z m70 3 c0 -5 -4 -10 -10
-10 -5 0 -10 5 -10 10 0 6 5 10 10 10 6 0 10 -4 10 -10z m-2370 -8 c0 -4 -10
-9 -22 -9 -18 -2 -20 0 -8 7 18 12 30 13 30 2z m1380 -12 c0 -23 -25 -27 -33
-6 -7 16 1 26 20 26 7 0 13 -9 13 -20z m240 -6 c0 -8 -4 -14 -10 -14 -5 0 -10
9 -10 21 0 11 5 17 10 14 6 -3 10 -13 10 -21z m-2030 4 c-1 -14 -24 -48 -33
-48 -15 0 -15 34 0 46 23 17 33 17 33 2z m2140 -3 c0 -8 -4 -15 -10 -15 -5 0
-10 7 -10 15 0 8 5 15 10 15 6 0 10 -7 10 -15z m50 6 c0 -14 -18 -23 -30 -16
-6 4 -8 11 -5 16 8 12 35 12 35 0z m-2775 -21 c-4 -11 -8 -43 -10 -71 -4 -57
-15 -79 -15 -31 0 17 -5 34 -10 37 -9 5 -7 33 6 73 2 6 11 12 19 12 12 0 15
-6 10 -20z m85 10 c-20 -13 -33 -13 -25 0 3 6 14 10 23 10 15 0 15 -2 2 -10z
m150 1 c0 -6 -4 -13 -10 -16 -5 -3 -10 1 -10 9 0 9 5 16 10 16 6 0 10 -4 10
-9z m2094 -23 c6 -4 21 -8 33 -8 12 0 25 -5 28 -10 4 -7 -13 -10 -49 -8 -59 3
-63 7 -44 41 9 17 12 19 16 7 3 -8 10 -18 16 -22z m-2378 -5 c-10 -10 -19 5
-10 18 6 11 8 11 12 0 2 -7 1 -15 -2 -18z m3412 -1 c3 -16 -2 -22 -17 -22 -24
0 -35 15 -27 36 9 23 40 13 44 -14z m-3448 8 c0 -5 -4 -10 -10 -10 -5 0 -10 5
-10 10 0 6 5 10 10 10 6 0 10 -4 10 -10z m580 6 c0 -3 -4 -8 -10 -11 -5 -3
-10 -1 -10 4 0 6 5 11 10 11 6 0 10 -2 10 -4z m2402 -18 c-7 -7 -12 -8 -12 -2
0 14 12 26 19 19 2 -3 -1 -11 -7 -17z m-3232 -8 c0 -11 -4 -20 -9 -20 -11 0
-22 26 -14 34 12 12 23 5 23 -14z m395 -14 c-13 -37 -17 -96 -8 -96 5 0 9 16
10 36 1 43 24 70 63 76 53 8 64 -26 30 -92 -15 -30 -26 -40 -45 -40 -13 0 -26
-4 -29 -9 -4 -5 -18 -6 -34 -2 -29 8 -30 11 -16 113 4 36 9 45 21 41 10 -4 12
-13 8 -27z m1081 17 c3 -10 11 -28 16 -40 21 -42 -14 -72 -43 -37 -10 12 -10
20 -1 35 10 16 9 19 -3 19 -18 0 -19 12 -3 28 17 17 28 15 34 -5z m1695 -20
c0 -35 1 -36 11 -15 24 49 47 -3 33 -75 l-6 -34 -57 4 c-31 3 -64 0 -74 -7
-23 -14 -50 2 -58 35 -6 24 -6 24 -21 -6 -17 -36 -44 -43 -71 -19 -19 18 -20
18 -33 1 -18 -26 -23 -21 -31 28 -7 47 -12 53 -32 33 -9 -9 -12 -9 -12 1 0 28
22 51 56 57 39 7 71 -10 41 -22 -9 -3 -17 -12 -17 -20 0 -24 14 -15 29 17 16
36 49 37 67 1 18 -37 27 -39 21 -6 -5 27 -3 33 16 38 12 3 37 0 56 -7 30 -11
35 -10 50 10 23 32 31 28 32 -14z m-2071 19 c0 -17 -14 -21 -28 -9 -14 10 -15
9 -7 -8 16 -39 12 -70 -10 -70 -24 0 -34 43 -13 56 10 7 9 9 -4 9 -10 0 -18 7
-18 15 0 11 11 15 40 15 22 0 40 -4 40 -8z m36 -8 c-3 -9 -6 -24 -6 -35 0 -10
-4 -19 -10 -19 -5 0 -10 16 -10 35 0 25 4 35 16 35 11 0 14 -5 10 -16z m374 1
c0 -8 -4 -15 -10 -15 -5 0 -10 7 -10 15 0 8 5 15 10 15 6 0 10 -7 10 -15z m36
-19 c-5 -23 -3 -36 6 -39 7 -2 10 -7 7 -11 -3 -3 -14 0 -23 7 -14 10 -17 21
-11 45 9 44 29 42 21 -2z m584 15 c0 -11 -5 -23 -11 -27 -15 -9 -33 12 -26 30
9 23 37 20 37 -3z m-1149 -15 c-7 -8 -8 -15 -2 -18 5 -1 13 -15 16 -30 6 -21
4 -28 -8 -28 -8 0 -17 -6 -20 -12 -3 -7 -4 7 -2 32 2 47 14 85 23 76 3 -3 0
-12 -7 -20z m-717 -2 c8 -20 -1 -34 -20 -34 -8 0 -14 10 -14 25 0 28 24 34 34
9z m451 -25 c-5 -29 -4 -40 4 -35 7 4 9 1 5 -8 -5 -12 -10 -13 -26 -5 -15 8
-18 17 -12 42 8 39 12 47 25 47 7 0 8 -15 4 -41z m497 -9 c-15 -24 -16 -40 -2
-40 6 0 10 9 10 19 0 27 56 71 90 71 l29 0 -15 -47 c-8 -27 -17 -58 -20 -70
-11 -43 -116 -53 -129 -12 -3 10 -1 27 4 38 6 11 11 37 11 57 0 36 1 37 17 21
15 -14 15 -21 5 -37z m198 2 c0 -14 -23 -42 -35 -42 -4 0 -4 14 0 31 5 23 4
30 -5 24 -9 -6 -9 -2 0 15 11 21 12 21 25 3 8 -10 15 -24 15 -31z m-1223 16
c-3 -8 -6 -5 -6 6 -1 11 2 17 5 13 3 -3 4 -12 1 -19z m458 -14 c16 -38 13 -54
-10 -54 -15 0 -30 34 -21 49 4 5 1 11 -6 13 -13 5 -2 28 12 28 6 0 17 -16 25
-36z m25 16 c0 -5 -2 -10 -4 -10 -3 0 -8 5 -11 10 -3 6 -1 10 4 10 6 0 11 -4
11 -10z m113 -63 c-7 -39 -6 -54 1 -51 6 2 12 18 13 35 1 17 8 38 14 46 17 20
64 43 89 43 19 0 20 -4 14 -37 -8 -49 -25 -84 -44 -93 -51 -25 -68 -30 -89
-25 -35 7 -41 23 -25 68 8 22 14 51 14 65 0 19 3 23 11 15 8 -8 8 -28 2 -66z
m1303 36 c-4 -4 -11 -1 -16 7 -16 25 -11 35 7 17 9 -9 13 -20 9 -24z m122 -3
c8 0 9 -11 5 -32 -8 -46 -20 -56 -40 -35 -16 16 -16 18 5 33 28 20 20 34 -21
34 -29 0 -30 1 -11 14 16 13 21 13 35 0 8 -8 21 -14 27 -14z m322 1 c0 -11 -5
-23 -11 -27 -15 -9 -33 12 -26 30 9 23 37 20 37 -3z m184 -8 c23 -18 46 -57
46 -80 0 -7 5 -13 10 -13 11 0 4 42 -11 72 -12 23 -11 48 1 48 6 0 10 -9 10
-20 0 -10 7 -35 16 -54 20 -41 14 -62 -18 -68 -67 -12 -114 25 -128 102 l-8
42 30 -6 c16 -3 39 -13 52 -23z m-2147 -5 c-3 -8 -6 -5 -6 6 -1 11 2 17 5 13
3 -3 4 -12 1 -19z m2020 -10 c2 -28 1 -30 -13 -17 -8 9 -12 23 -8 32 10 26 19
20 21 -15z m-2287 8 c0 -15 -18 -31 -26 -23 -7 7 7 37 17 37 5 0 9 -6 9 -14z
m817 -30 c-4 -9 -11 -16 -18 -16 -6 0 -8 7 -5 16 3 9 6 21 6 27 0 8 3 8 11 0
7 -7 9 -19 6 -27z m628 14 c10 -11 16 -20 13 -20 -3 0 -13 9 -23 20 -10 11
-16 20 -13 20 3 0 13 -9 23 -20z m590 -15 c0 -17 6 -33 15 -36 20 -9 30 -2 30
22 0 11 5 17 10 14 14 -8 13 -42 -2 -51 -14 -9 -97 -8 -106 1 -4 3 -1 10 7 14
7 5 12 17 11 27 -4 36 0 45 18 42 12 -2 17 -13 17 -33z m-805 11 c0 -15 -18
-31 -26 -23 -7 7 7 37 17 37 5 0 9 -6 9 -14z m1014 -11 c3 -8 1 -15 -4 -15 -6
0 -10 7 -10 15 0 8 2 15 4 15 2 0 6 -7 10 -15z m-1854 -20 c0 -8 -7 -15 -15
-15 -9 0 -12 6 -9 15 4 8 10 15 15 15 5 0 9 -7 9 -15z m1374 7 c3 -5 -10 -16
-29 -25 -27 -13 -35 -23 -35 -44 0 -21 -3 -24 -12 -15 -10 10 -8 20 6 47 10
19 22 32 27 30 4 -3 10 -1 14 5 8 12 22 13 29 2z m51 -43 c11 -17 -1 -21 -15
-4 -8 9 -8 15 -2 15 6 0 14 -5 17 -11z m1695 -4 c0 -8 -7 -15 -16 -15 -14 0
-14 3 -4 15 7 8 14 15 16 15 2 0 4 -7 4 -15z m-3330 -5 c0 -5 -2 -10 -4 -10
-3 0 -8 5 -11 10 -3 6 -1 10 4 10 6 0 11 -4 11 -10z m2970 6 c0 -3 -4 -8 -10
-11 -5 -3 -10 -1 -10 4 0 6 5 11 10 11 6 0 10 -2 10 -4z m440 -26 c0 -11 -4
-20 -10 -20 -5 0 -10 9 -10 20 0 11 5 20 10 20 6 0 10 -9 10 -20z m-3860 1 c0
-6 -4 -13 -10 -16 -5 -3 -10 1 -10 9 0 9 5 16 10 16 6 0 10 -4 10 -9z m3530
-13 c0 -19 -2 -20 -10 -8 -13 19 -13 30 0 30 6 0 10 -10 10 -22z"/>
<path d="M2065 3561 c-3 -5 -1 -12 5 -16 5 -3 10 1 10 9 0 18 -6 21 -15 7z"/>
<path d="M2400 3333 c0 -21 7 -37 20 -46 18 -12 19 -18 10 -39 -7 -14 -27 -30
-46 -37 -27 -10 -34 -18 -32 -34 2 -12 13 -26 26 -32 12 -5 22 -13 22 -17 0
-5 6 -8 13 -8 14 0 47 -35 47 -49 0 -10 56 -31 89 -34 11 0 19 -6 18 -12 -1
-5 10 -11 26 -13 20 -2 27 1 27 13 0 30 -31 125 -41 125 -5 0 -9 9 -9 19 0 10
-7 21 -15 25 -8 3 -15 14 -15 25 0 21 -45 51 -75 51 -9 0 -14 4 -11 9 5 7 -15
41 -46 76 -4 5 -8 -5 -8 -22z"/>
<path d="M1292 3150 c-18 -16 -37 -30 -42 -30 -12 0 -51 -76 -44 -83 3 -3 2
-12 -2 -19 -5 -7 -9 -34 -10 -60 -1 -40 2 -48 17 -48 19 0 43 33 32 44 -3 3
-1 6 5 6 7 0 12 7 12 15 0 9 7 18 16 22 8 3 13 12 10 20 -5 12 1 14 34 8 22
-4 40 -3 38 2 -1 4 2 19 6 32 5 14 4 27 -3 34 -6 6 -11 20 -11 32 0 12 -6 29
-13 38 -11 16 -15 15 -45 -13z"/>
<path d="M2249 2581 c25 -22 46 -27 55 -12 3 5 -4 11 -17 14 -12 2 -31 8 -42
12 -17 6 -17 4 4 -14z"/>
<path d="M1345 2790 c-3 -5 -2 -10 4 -10 5 0 13 5 16 10 3 6 2 10 -4 10 -5 0
-13 -4 -16 -10z"/>
<path d="M1182 2500 c0 -14 2 -19 5 -12 2 6 2 18 0 25 -3 6 -5 1 -5 -13z"/>
<path d="M1206 2467 c3 -10 9 -15 12 -12 3 3 0 11 -7 18 -10 9 -11 8 -5 -6z"/>
<path d="M1807 2088 c4 -7 8 -19 9 -26 3 -17 12 -27 19 -20 11 11 -7 58 -22
58 -9 0 -11 -5 -6 -12z"/>
<path d="M1931 2044 c0 -11 3 -14 6 -6 3 7 2 16 -1 19 -3 4 -6 -2 -5 -13z"/>
<path d="M1960 2014 c0 -8 5 -12 10 -9 6 3 10 10 10 16 0 5 -4 9 -10 9 -5 0
-10 -7 -10 -16z"/>
<path d="M2140 1830 c0 -6 -10 -15 -22 -20 -22 -9 -22 -9 3 -9 19 -1 28 5 32
19 3 11 1 20 -4 20 -5 0 -9 -5 -9 -10z"/>
<path d="M1726 1789 c37 -39 115 -79 151 -78 20 1 23 3 9 6 -22 6 -46 27 -46
41 0 11 -33 42 -44 42 -5 0 -5 -11 -2 -25 4 -14 2 -25 -4 -25 -5 0 -10 6 -10
13 0 12 -59 57 -75 57 -5 0 4 -14 21 -31z"/>
<path d="M205 710 c3 -5 8 -10 11 -10 2 0 4 5 4 10 0 6 -5 10 -11 10 -5 0 -7
-4 -4 -10z"/>
<path d="M880 520 c0 -5 5 -10 11 -10 5 0 7 5 4 10 -3 6 -8 10 -11 10 -2 0 -4
-4 -4 -10z"/>
<path d="M3075 510 c3 -5 8 -10 11 -10 2 0 4 5 4 10 0 6 -5 10 -11 10 -5 0 -7
-4 -4 -10z"/>
<path d="M3151 503 c0 -4 4 -17 9 -28 8 -19 9 -19 9 2 1 12 -3 25 -9 28 -5 3
-10 3 -9 -2z"/>
<path d="M305 430 c3 -5 8 -10 11 -10 2 0 4 5 4 10 0 6 -5 10 -11 10 -5 0 -7
-4 -4 -10z"/>
<path d="M1666 123 c-11 -12 -6 -19 14 -19 11 0 20 3 20 7 0 10 -27 19 -34 12z"/>
<path d="M680 299 c0 -5 5 -7 10 -4 6 3 10 8 10 11 0 2 -4 4 -10 4 -5 0 -10
-5 -10 -11z"/>
<path d="M510 214 c0 -8 5 -12 10 -9 6 4 8 11 5 16 -9 14 -15 11 -15 -7z"/>
<path d="M3000 165 c0 -14 4 -25 9 -25 4 0 6 11 3 25 -2 14 -6 25 -8 25 -2 0
-4 -11 -4 -25z"/>
<path d="M3101 154 c0 -11 3 -14 6 -6 3 7 2 16 -1 19 -3 4 -6 -2 -5 -13z"/>
<path d="M1245 120 c-3 -5 -2 -10 4 -10 5 0 13 5 16 10 3 6 2 10 -4 10 -5 0
-13 -4 -16 -10z"/>
<path d="M2720 154 c0 -8 5 -12 10 -9 6 3 10 10 10 16 0 5 -4 9 -10 9 -5 0
-10 -7 -10 -16z"/>
<path d="M1293 1598 c1 -33 6 -56 12 -55 17 6 17 54 1 84 -15 28 -16 27 -13
-29z"/>
<path d="M1032 1250 c-13 -13 -35 -20 -60 -20 -21 0 -47 -7 -58 -15 -17 -13
-14 -14 44 -15 45 0 62 4 62 13 0 8 11 19 25 25 24 11 25 11 18 -16 -6 -24 -5
-26 10 -13 21 17 22 47 1 55 -20 8 -17 9 -42 -14z"/>
<path d="M1178 1252 c-18 -3 -26 -32 -9 -32 10 0 36 29 30 33 -2 2 -12 2 -21
-1z"/>
<path d="M1224 1232 c-3 -9 -9 -27 -14 -39 -9 -21 -4 -33 12 -33 4 0 8 8 8 18
0 10 7 27 15 39 13 19 13 22 -1 27 -9 3 -17 -1 -20 -12z"/>
<path d="M2610 1202 c0 -5 6 -16 13 -26 13 -18 14 -18 21 -1 4 11 1 22 -6 27
-17 10 -28 10 -28 0z"/>
<path d="M2677 1194 c-9 -10 2 -24 19 -24 8 0 14 7 14 15 0 15 -21 21 -33 9z"/>
<path d="M788 1173 c7 -3 16 -2 19 1 4 3 -2 6 -13 5 -11 0 -14 -3 -6 -6z"/>
<path d="M2995 1079 c-11 -17 0 -20 21 -4 17 13 17 14 2 15 -9 0 -20 -5 -23
-11z"/>
<path d="M470 1060 c-11 -7 -5 -10 23 -10 20 0 37 5 37 10 0 13 -40 13 -60 0z"/>
<path d="M3329 994 c34 -15 48 -13 36 5 -3 6 -21 11 -38 10 l-32 -1 34 -14z"/>
<path d="M3398 973 c7 -3 16 -2 19 1 4 3 -2 6 -13 5 -11 0 -14 -3 -6 -6z"/>
<path d="M3730 860 c0 -5 7 -10 16 -10 8 0 12 5 9 10 -3 6 -10 10 -16 10 -5 0
-9 -4 -9 -10z"/>
<path d="M0 519 c0 -5 5 -7 10 -4 5 3 10 8 10 11 0 2 -4 4 -10 4 -5 0 -10 -5
-10 -11z"/>
<path d="M3501 243 c0 -6 -4 -20 -7 -30 -5 -14 -4 -15 5 -7 7 7 11 20 8 30 -3
11 -5 14 -6 7z"/>
<path d="M120 225 c0 -9 5 -15 11 -13 6 2 11 8 11 13 0 5 -5 11 -11 13 -6 2
-11 -4 -11 -13z"/>
<path d="M3576 185 c-3 -9 -6 -18 -6 -19 0 -1 9 -2 19 -2 16 0 18 3 8 16 -6 8
-12 16 -13 18 -1 2 -4 -4 -8 -13z"/>
<path d="M3665 188 c-4 -10 -4 -26 0 -35 6 -17 7 -17 16 0 7 11 7 23 0 35 -9
16 -10 16 -16 0z"/>
<path d="M26 163 c-9 -22 -3 -25 25 -15 l23 9 -21 11 c-17 10 -22 9 -27 -5z"/>
<path d="M3473 160 c-13 -5 -23 -12 -23 -15 0 -9 16 -5 36 10 22 16 19 18 -13
5z"/>
<path d="M1455 50 c3 -5 8 -10 11 -10 2 0 4 5 4 10 0 6 -5 10 -11 10 -5 0 -7
-4 -4 -10z"/>
<path d="M1035 40 c3 -5 8 -10 11 -10 2 0 4 5 4 10 0 6 -5 10 -11 10 -5 0 -7
-4 -4 -10z"/>
<path d="M2583 27 c5 -17 37 -21 37 -5 0 8 -9 14 -21 15 -12 1 -19 -3 -16 -10z"/>
<path d="M1045 10 c-3 -5 1 -10 9 -10 9 0 16 5 16 10 0 6 -4 10 -9 10 -6 0
-13 -4 -16 -10z"/>
</g>
</svg>
